<svg width="408" height="828" viewBox="0 0 408 828" fill="none" xmlns="http://www.w3.org/2000/svg">
<g opacity="0.5">
<g opacity="0.5" filter="url(#filter0_f_998_93396)">
<path d="M-125.224 591.712C-93.0272 613.312 -55.5676 625.76 -16.8466 627.725C21.8743 629.69 60.4016 621.099 94.6195 602.87C128.837 584.64 157.46 557.457 177.43 524.225C197.399 490.993 207.966 452.96 208 414.189C208.034 375.418 197.535 337.367 177.624 304.099C157.713 270.832 129.138 243.598 94.9529 225.308C60.7673 207.019 22.2551 198.36 -16.4692 200.256C-55.1935 202.153 -92.6751 214.534 -124.91 236.077L-77.3007 307.314C-57.9722 294.396 -35.4975 286.972 -12.2776 285.835C10.9424 284.698 34.035 289.89 54.5334 300.857C75.0318 311.824 92.1657 328.153 104.105 348.101C116.044 368.049 122.339 390.866 122.319 414.113C122.298 437.361 115.962 460.166 103.988 480.093C92.014 500.02 74.8512 516.319 54.3335 527.25C33.8158 538.181 10.714 543.332 -12.5039 542.154C-35.7217 540.976 -58.1833 533.512 -77.489 520.56L-125.224 591.712Z" fill="#216FE4"/>
</g>
<path d="M216.32 266.819C215.537 276.853 192.363 282.926 164.506 280.457C136.649 277.988 114.722 267.847 115.459 257.875C116.197 247.903 139.417 241.768 167.274 244.237C195.131 246.706 217.071 256.82 216.32 266.819Z" stroke="#67787F" stroke-miterlimit="10"/>
<path d="M204.495 290.864C203.711 300.897 180.537 306.97 152.68 304.501C124.823 302.032 102.876 291.932 103.634 281.919C104.391 271.906 127.557 265.881 155.448 268.281C183.338 270.682 205.246 280.864 204.495 290.864Z" stroke="#67787F" stroke-miterlimit="10"/>
<path d="M192.595 315.059C191.811 325.092 168.638 331.165 140.781 328.696C112.924 326.227 90.9829 316.113 91.7339 306.114C92.4849 296.114 115.691 290.007 143.548 292.476C171.405 294.945 193.353 305.046 192.595 315.059Z" stroke="#67787F" stroke-miterlimit="10"/>
<path d="M180.769 339.103C179.985 349.136 156.812 355.21 128.955 352.741C101.098 350.272 79.1706 340.131 79.9082 330.159C80.6458 320.187 103.832 314.12 131.723 316.521C159.613 318.922 181.527 329.09 180.769 339.103Z" stroke="#67787F" stroke-miterlimit="10"/>
</g>
<defs>
<filter id="filter0_f_998_93396" x="-325.224" y="0" width="733.224" height="828" filterUnits="userSpaceOnUse" color-interpolation-filters="sRGB">
<feFlood flood-opacity="0" result="BackgroundImageFix"/>
<feBlend mode="normal" in="SourceGraphic" in2="BackgroundImageFix" result="shape"/>
<feGaussianBlur stdDeviation="100" result="effect1_foregroundBlur_998_93396"/>
</filter>
</defs>
</svg>
