<?xml version="1.0" encoding="UTF-8"?>
<svg id="Design" xmlns="http://www.w3.org/2000/svg" version="1.1" viewBox="0 0 1188.1 202.1">
  <!-- Generator: Adobe Illustrator 29.0.0, SVG Export Plug-In . SVG Version: 2.1.0 Build 186)  -->
  <defs>
    <style>
      .st0 {
        fill: #67787f;
      }

      .st1 {
        fill: #dea10b;
      }

      .st2 {
        fill: none;
        stroke: #022d40;
        stroke-linecap: round;
        stroke-linejoin: round;
        stroke-width: 12px;
      }
    </style>
  </defs>
  <path class="st2" d="M1634.3,1278.8"/>
  <g>
    <path class="st1" d="M249.9,149.7h7.3l15-94.2c.5-3.2,1.2-6.5,1.9-9.7.7-3.2,2-6.2,3.7-8.8,1.7-2.6,4.1-4.8,7.2-6.5,3.1-1.7,7.4-2.5,12.8-2.5h40.6v121.8h5.7v37.2h-23.6v-11.8h-47.1v11.8h-23.6v-37.2ZM308.8,55.3c-2,0-3.7.2-4.9.7-1.2.5-2.2,1.3-2.8,2.5-.7,1.2-1.2,2.8-1.6,4.9-.4,2-.9,4.7-1.4,7.9l-11.4,78.4h21.9l.2-94.4Z"/>
    <path class="st1" d="M355.3,27.9h57.3l5.1,27.4h-32.1v34.9h24.4v25.4h-24.4v32.1h30.9l-5.1,27.4h-56V27.9Z"/>
    <path class="st1" d="M457.9,91.1h4.5l15-63.1h30.5l-17.7,67.8,17.5,79.4h-32.3l-11.6-60.7h-5.9v60.7h-30.1V27.9h30.1v63.1Z"/>
    <path class="st1" d="M544.2,156.9l-2.6,18.3h-29.6l26.6-147.2h31.5l26.6,147.2h-29.6l-2.6-18.3h-20.1ZM547.4,133.5h13.6l-6.7-52.2-6.9,52.2Z"/>
    <path class="st1" d="M662.5,27.9c5.8,0,10.2,1.6,13.1,4.9,2.9,3.2,4.4,7.6,4.4,13v70.5c0,2.8-.3,5.5-.9,7.8-.6,2.4-1.7,4.4-3.4,6.2-1.6,1.8-3.8,3.1-6.5,4.2-2.7,1-6.1,1.5-10.2,1.5h-25.2v39.2h-29.2V27.9h57.9ZM633.9,53.7v57.9h14.6c1.2,0,2-.2,2.3-.7.3-.5.5-1.2.5-2.3v-52c0-1.9-.9-2.8-2.6-2.8h-14.8Z"/>
    <path class="st1" d="M749.6,27.9l7.3,27.4h-19.7v119.8h-30.1V55.3h-19.7l7.7-27.4h54.4Z"/>
  </g>
  <g>
    <path class="st0" d="M819.2,55.9h2l6.7-28h13.5l-7.8,30.1,7.7,35.2h-14.3l-5.1-26.9h-2.6v26.9h-13.3V27.9h13.3v28Z"/>
    <path class="st0" d="M870.6,27.9c2.6,0,4.5.7,5.8,2.2,1.3,1.4,1.9,3.4,1.9,5.8v31.2c0,1.3-.1,2.4-.4,3.5s-.8,2-1.5,2.7c-.7.8-1.7,1.4-2.9,1.8-1.2.5-2.7.7-4.5.7h-11.2v17.4h-13V27.9h25.6ZM857.9,39.3v25.6h6.5c.5,0,.9-.1,1-.3.1-.2.2-.6.2-1v-23c0-.8-.4-1.3-1.2-1.3h-6.6Z"/>
    <path class="st0" d="M883.5,27.9h25.4l2.2,12.1h-14.2v15.5h10.8v11.2h-10.8v14.2h13.7l-2.2,12.1h-24.8V27.9Z"/>
    <path class="st0" d="M928.1,85l-1.2,8.1h-13.1l11.8-65.2h14l11.8,65.2h-13.1l-1.2-8.1h-8.9ZM929.6,74.7h6l-3-23.1-3.1,23.1Z"/>
    <path class="st0" d="M977.5,27.9l3.2,12.1h-8.7v53.1h-13.3v-53.1h-8.7l3.4-12.1h24.1Z"/>
    <path class="st0" d="M1016.9,93.1h-12.1v-27.3l-7,27.3h-13.4V27.9h13.4v26.2l6.7-26.2h12.4v65.2Z"/>
    <path class="st0" d="M1055.5,53.7c0,1.6-.3,3-.9,4.2-.6,1.2-1.8,2-3.6,2.5,1.8.1,3.1.8,3.9,1.9.8,1.1,1.2,2.4,1.2,3.9v16.9c0,3.6-.8,6.2-2.2,7.7-1.5,1.6-4.1,2.3-7.9,2.3h-23.7V27.9h25.5c2.6,0,4.5.7,5.8,2.2,1.3,1.4,1.9,3.4,1.9,5.8v17.9ZM1035.2,39.3v17.1h6.1c.5,0,.9-.1,1.2-.4.3-.3.4-.7.4-1.3v-14.1c0-.8-.4-1.3-1.2-1.3h-6.6ZM1043.2,68.2c0-.7-.2-1.2-.5-1.5s-.8-.4-1.4-.4h-5.9v15.4h6.6c.5,0,.9-.1,1.1-.3.2-.2.3-.6.3-1v-12.2Z"/>
    <path class="st0" d="M1095.3,93.1h-13.3v-26.1h-7.1v26.1h-13.3V27.9h13.3v27.9h7.1v-27.9h13.3v65.2Z"/>
    <path class="st0" d="M1113.2,85l-1.2,8.1h-13.1l11.8-65.2h14l11.8,65.2h-13.1l-1.2-8.1h-8.9ZM1114.6,74.7h6l-3-23.1-3.1,23.1Z"/>
    <path class="st0" d="M1140.5,36.3c0-2.6.7-4.6,2.1-6.2,1.4-1.5,3.6-2.3,6.7-2.3h24.8v65.2h-13.1v-20.8h-1.7l-6.3,20.8h-13.5l6.8-20.8c-1.9,0-3.4-.6-4.4-1.8-1-1.2-1.5-2.5-1.5-4v-30.2ZM1154.7,39.3c-.8,0-1.3.4-1.3,1.3v19.8c0,.9.4,1.4,1.3,1.4h6.4v-22.5h-6.4Z"/>
    <path class="st0" d="M805.9,109.9h13v65.2h-13v-65.2Z"/>
    <path class="st0" d="M850.1,109.9l3.2,12.1h-8.7v53.1h-13.3v-53.1h-8.7l3.4-12.1h24.1Z"/>
    <path class="st0" d="M878.4,175.1c-3.8,0-6.4-.8-7.9-2.3-1.5-1.6-2.2-4.1-2.2-7.7v-47.2c0-2.6.7-4.6,2.2-5.9,1.5-1.4,3.3-2.1,5.4-2.1h17.2l2.2,12.1h-12.5c-.8,0-1.2.4-1.2,1.3v38.4c0,.8.4,1.3,1.2,1.3h12.5l-2.3,12.1h-14.6Z"/>
    <path class="st0" d="M925.5,109.9l3.2,12.1h-8.7v53.1h-13.3v-53.1h-8.7l3.4-12.1h24.1Z"/>
    <path class="st0" d="M952.9,175.1h-14l4.1-16.6-12.5-48.7h13.5l5.9,30.8,5.9-30.8h13.5l-16.5,65.2Z"/>
    <path class="st0" d="M964.9,163.9h3.2l6.7-41.8c.2-1.4.5-2.9.9-4.3.3-1.4.9-2.7,1.6-3.9.7-1.2,1.8-2.1,3.2-2.9,1.4-.7,3.3-1.1,5.7-1.1h18v54h2.5v16.5h-10.4v-5.2h-20.9v5.2h-10.4v-16.5ZM991,122c-.9,0-1.6.1-2.2.3-.5.2-1,.6-1.3,1.1-.3.5-.5,1.3-.7,2.2-.2.9-.4,2.1-.6,3.5l-5,34.7h9.7v-41.9Z"/>
    <path class="st0" d="M1044.1,175.1h-12.1v-27.3l-7,27.3h-13.4v-65.2h13.4v26.2l6.7-26.2h12.4v65.2Z"/>
    <path class="st0" d="M1050,118.3c0-2.6.7-4.6,2.1-6.2,1.4-1.5,3.6-2.3,6.7-2.3h24.8v65.2h-13.1v-20.8h-1.7l-6.3,20.8h-13.5l6.8-20.8c-1.9,0-3.4-.6-4.4-1.8-1-1.2-1.5-2.5-1.5-4v-30.2ZM1064.1,121.3c-.8,0-1.3.4-1.3,1.3v19.8c0,.9.4,1.4,1.3,1.4h6.4v-22.5h-6.4Z"/>
  </g>
  <g>
    <path class="st2" d="M162.2,146.4"/>
    <path class="st0" d="M162.9,45.2L101.2,9.6c-8.1-4.7-18.2-4.7-26.3,0L13.2,45.2C5.1,49.9,0,58.7,0,68v22.3c-.1.6-.1,1.3,0,1.9v47c0,9.4,5,18.1,13.2,22.8l61.7,35.6c4.1,2.3,8.6,3.5,13.2,3.5s9.1-1.2,13.2-3.5l18.1-10.5c1.2-.3,2.3-.9,3.1-1.8l40.5-23.4c8.1-4.7,13.2-13.4,13.2-22.8v-71.2c0-9.4-5-18.1-13.2-22.8ZM80.9,20c4.4-2.5,9.9-2.5,14.3,0l36.7,21.2-99.1,6.5,48-27.7ZM12.1,139.3v-38.3l43.6,21.7,15.5,59-51.9-30c-4.4-2.5-7.2-7.3-7.2-12.4ZM95.2,187.3c-3,1.7-6.5,2.3-9.8,1.7l-18.9-72c-.4-1.7-1.6-3.1-3.1-3.9l-51.4-25.5v-19.6c0-2.8.8-5.4,2.2-7.7.7.3,1.5.5,2.3.5s.3,0,.4,0l133.6-8.8,6.3,3.6c4.4,2.5,7.2,7.3,7.2,12.4v11.9c-.3.4-.6.7-.8,1.2l-49.5,95.5-18.5,10.7ZM156.9,151.7l-23.9,13.8,31-59.9v33.7c0,5.1-2.7,9.8-7.2,12.4Z"/>
    <polygon class="st1" points="147.7 69.7 33.6 75.7 82 103.6 97 155.1 147.7 69.7"/>
  </g>
</svg>