<svg width="40" height="41" viewBox="0 0 40 41" fill="none" xmlns="http://www.w3.org/2000/svg">
<rect x="1" y="1.70654" width="38" height="38" rx="19" stroke="#1F1F1F" stroke-width="2"/>
<path d="M25.5663 22.0398H10.6663C10.2886 22.0398 9.97212 21.9118 9.71701 21.6558C9.4619 21.3998 9.3339 21.0833 9.33301 20.7064C9.33212 20.3295 9.46012 20.0131 9.71701 19.7571C9.9739 19.5011 10.2903 19.3731 10.6663 19.3731H25.5663L19.033 12.8398C18.7663 12.5731 18.6383 12.262 18.649 11.9064C18.6597 11.5509 18.7988 11.2398 19.0663 10.9731C19.333 10.7287 19.6441 10.6007 19.9997 10.5891C20.3552 10.5775 20.6663 10.7055 20.933 10.9731L29.733 19.7731C29.8663 19.9064 29.961 20.0509 30.017 20.2064C30.073 20.362 30.1006 20.5287 30.0997 20.7064C30.0988 20.8842 30.0712 21.0509 30.017 21.2064C29.9628 21.362 29.8681 21.5064 29.733 21.6398L20.933 30.4398C20.6886 30.6842 20.3832 30.8064 20.017 30.8064C19.6508 30.8064 19.3339 30.6842 19.0663 30.4398C18.7997 30.1731 18.6663 29.8567 18.6663 29.4904C18.6663 29.1242 18.7997 28.8073 19.0663 28.5398L25.5663 22.0398Z" fill="#1F1F1F"/>
</svg>
