<svg width="40" height="41" viewBox="0 0 40 41" fill="none" xmlns="http://www.w3.org/2000/svg">
<rect x="39" y="39.7065" width="38" height="38" rx="19" transform="rotate(-180 39 39.7065)" stroke="#BFBFBF" stroke-width="2"/>
<path d="M14.4337 19.3733L29.3337 19.3733C29.7114 19.3733 30.0279 19.5013 30.283 19.7573C30.5381 20.0133 30.6661 20.3298 30.667 20.7067C30.6679 21.0835 30.5399 21.4 30.283 21.656C30.0261 21.912 29.7097 22.04 29.3337 22.04L14.4337 22.04L20.967 28.5733C21.2337 28.84 21.3617 29.1511 21.351 29.5067C21.3403 29.8622 21.2012 30.1733 20.9337 30.44C20.667 30.6844 20.3559 30.8124 20.0003 30.824C19.6448 30.8355 19.3337 30.7075 19.067 30.44L10.267 21.64C10.1337 21.5067 10.039 21.3622 9.98299 21.2067C9.92699 21.0511 9.89943 20.8844 9.90032 20.7067C9.90121 20.5289 9.92876 20.3622 9.98299 20.2067C10.0372 20.0511 10.1319 19.9067 10.267 19.7733L19.067 10.9733C19.3114 10.7289 19.6168 10.6067 19.983 10.6067C20.3492 10.6067 20.6661 10.7289 20.9337 10.9733C21.2003 11.24 21.3337 11.5564 21.3337 11.9227C21.3337 12.2889 21.2003 12.6058 20.9337 12.8733L14.4337 19.3733Z" fill="#BFBFBF"/>
</svg>
